<svg width="1920" height="936" xmlns="http://www.w3.org/2000/svg" version="1.1">
    <rect x="0" y="0" width="1920" height="936" stroke="blue" fill="blue" stroke-width="0" />
    <rect x="1400" y="535" width="200" height="436" stroke="black" fill="#6e2b00" stroke-width="5" />
    <rect x="5" y="896" width="1910" height="35" stroke="black" fill="green" stroke-width="5" />
    <circle cx="1920" cy="0" r="140" stroke="black" fill="yellow" stroke-width="0" />
    <circle cx="85" cy="801" r="35" stroke="black" fill="#c90628" stroke-width="5" />
    <circle cx="1500" cy="500" r="35" stroke="black" fill="#75e543" stroke-width="5" />
    <circle cx="85" cy="901" r="15" stroke="black" fill="pink" stroke-width="0" />
    <circle cx="95" cy="907" r="15" stroke="black" fill="pink" stroke-width="0" />
    <circle cx="105" cy="912" r="15" stroke="black" fill="pink" stroke-width="0" />
    <circle cx="115" cy="915" r="15" stroke="black" fill="pink" stroke-width="0" />
    <circle cx="125" cy="917" r="15" stroke="black" fill="pink" stroke-width="0" />
    <circle cx="135" cy="918" r="15" stroke="black" fill="pink" stroke-width="0" />
    <circle cx="145" cy="917" r="15" stroke="black" fill="pink" stroke-width="0" />
    <circle cx="155" cy="915" r="15" stroke="black" fill="pink" stroke-width="0" />
    <circle cx="165" cy="912" r="15" stroke="black" fill="pink" stroke-width="0" />
    <circle cx="175" cy="908" r="15" stroke="black" fill="pink" stroke-width="0" />
    <circle cx="185" cy="902" r="15" stroke="black" fill="pink" stroke-width="0" />
    <circle cx="195" cy="895" r="15" stroke="black" fill="pink" stroke-width="0" />
    <circle cx="205" cy="887" r="15" stroke="black" fill="pink" stroke-width="0" />
    <circle cx="215" cy="877" r="15" stroke="black" fill="pink" stroke-width="0" />
    <circle cx="225" cy="866" r="15" stroke="black" fill="pink" stroke-width="0" />
    <circle cx="235" cy="854" r="15" stroke="black" fill="pink" stroke-width="0" />
    <circle cx="245" cy="841" r="15" stroke="black" fill="pink" stroke-width="0" />
    <circle cx="255" cy="826" r="15" stroke="black" fill="pink" stroke-width="0" />
    <circle cx="265" cy="810" r="15" stroke="black" fill="pink" stroke-width="0" />
    <circle cx="275" cy="793" r="15" stroke="black" fill="pink" stroke-width="0" />
    <circle cx="285" cy="774" r="15" stroke="black" fill="pink" stroke-width="0" />
    <circle cx="295" cy="754" r="15" stroke="black" fill="pink" stroke-width="0" />
    <circle cx="305" cy="733" r="15" stroke="black" fill="pink" stroke-width="0" />
    <circle cx="315" cy="711" r="15" stroke="black" fill="pink" stroke-width="0" />
    <circle cx="325" cy="687" r="15" stroke="black" fill="pink" stroke-width="0" />
    <circle cx="335" cy="662" r="15" stroke="black" fill="pink" stroke-width="0" />
    <circle cx="345" cy="636" r="15" stroke="black" fill="pink" stroke-width="0" />
    <circle cx="355" cy="609" r="15" stroke="black" fill="pink" stroke-width="0" />
    <circle cx="365" cy="580" r="15" stroke="black" fill="pink" stroke-width="0" />
    <circle cx="375" cy="550" r="15" stroke="black" fill="pink" stroke-width="0" />
</svg>