<svg width="1920" height="936" xmlns="http://www.w3.org/2000/svg" version="1.1">
    <rect x="0" y="0" width="1920" height="936" stroke="blue" fill="blue" stroke-width="0" />
    <rect x="1400" y="535" width="200" height="436" stroke="black" fill="#6e2b00" stroke-width="5" />
    <rect x="5" y="896" width="1910" height="35" stroke="black" fill="green" stroke-width="5" />
    <circle cx="1920" cy="0" r="140" stroke="black" fill="yellow" stroke-width="0" />
    <circle cx="85" cy="801" r="35" stroke="black" fill="#c90628" stroke-width="5" />
    <circle cx="1500" cy="500" r="35" stroke="black" fill="#75e543" stroke-width="5" />
    <polyline points="85,801 130,756 176,713 222,674 268,636 314,601 360,569 406,539 452,511 498,486 544,464 590,443 636,426 682,410 728,397 774,387 820,379 866,374 912,370 958,370 1004,372 1050,376 1096,383 1142,392 1188,404 1234,418 1280,434 1325,453 1371,475 1417,499 1463,525 1509,554 1555,585 1601,619 1647,655 1693,694 1739,735 1785,779 1831,825 1877,873 1923,924 1969,977 2015,1033 " stroke="pink" fill="none" stroke-width="1" />
    <polyline points="85,801 126,752 168,706 210,662 252,621 293,582 335,546 377,512 419,481 461,452 502,425 544,401 586,380 628,360 669,344 711,330 753,318 795,308 837,302 878,297 920,295 962,296 1004,299 1045,304 1087,312 1129,322 1171,335 1213,350 1254,368 1296,388 1338,410 1380,435 1421,463 1463,493 1505,525 1547,560 1589,597 1630,637 1672,679 1714,724 1756,771 1798,820 1839,872 1881,927 1923,984 1965,1043 " stroke="pink" fill="none" stroke-width="1" />
    <polyline points="85,801 122,748 159,699 196,652 234,607 271,565 308,525 345,488 383,453 420,421 457,391 495,363 532,338 569,316 606,295 644,278 681,263 718,250 756,239 793,232 830,226 867,223 905,223 942,225 979,229 1017,236 1054,245 1091,257 1128,271 1166,288 1203,307 1240,328 1278,352 1315,379 1352,408 1389,439 1427,473 1464,509 1501,548 1539,589 1576,633 1613,679 1650,727 1688,778 1725,832 1762,888 1799,946 1837,1007 1874,1070 " stroke="pink" fill="none" stroke-width="1" />
    <polyline points="85,801 135,759 186,720 237,683 288,649 339,617 390,588 441,561 492,537 543,515 594,496 645,479 696,464 747,452 798,442 849,435 900,430 951,428 1001,428 1052,431 1103,436 1154,444 1205,454 1256,466 1307,481 1358,498 1409,518 1460,540 1511,565 1562,592 1613,622 1664,654 1715,688 1766,725 1817,765 1867,807 1918,851 1969,898 2020,947 " stroke="pink" fill="none" stroke-width="1" />
    <polyline points="85,801 132,755 179,711 226,670 273,632 320,596 367,563 414,531 461,503 508,477 555,453 602,432 649,413 696,396 743,383 790,371 837,362 884,356 931,351 978,350 1025,351 1072,354 1119,360 1166,368 1213,378 1260,391 1307,407 1354,425 1401,445 1448,468 1495,493 1542,521 1589,551 1636,584 1683,619 1730,657 1777,697 1824,739 1871,784 1918,832 1965,882 2012,934 " stroke="pink" fill="none" stroke-width="1" />
    <polyline points="85,801 127,751 170,704 213,659 255,616 298,576 341,539 384,504 426,471 469,441 512,414 555,389 597,366 640,345 683,328 726,312 768,299 811,289 854,281 897,275 939,272 982,271 1025,273 1068,278 1110,284 1153,293 1196,305 1239,319 1281,336 1324,354 1367,376 1410,400 1452,426 1495,455 1538,486 1581,520 1623,556 1666,594 1709,635 1752,679 1794,725 1837,773 1880,824 1923,877 1965,933 2008,991 " stroke="pink" fill="none" stroke-width="1" />
    <polyline points="85,801 123,747 161,696 199,648 237,602 275,559 313,518 351,479 390,443 428,410 466,378 504,350 542,323 580,300 618,278 657,259 695,243 733,229 771,217 809,208 847,202 885,197 924,196 962,196 1000,199 1038,205 1076,213 1114,224 1152,237 1191,252 1229,270 1267,290 1305,313 1343,338 1381,366 1419,396 1458,429 1496,464 1534,501 1572,541 1610,584 1648,628 1686,676 1725,725 1763,778 1801,832 1839,889 1877,949 1915,1011 1953,1076 " stroke="pink" fill="none" stroke-width="1" />
    <polyline points="85,801 118,744 151,690 184,639 217,590 251,543 284,499 317,457 350,418 384,382 417,347 450,315 483,286 517,259 550,235 583,213 616,193 650,176 683,161 716,149 749,139 783,132 816,127 849,125 882,125 916,127 949,132 982,139 1015,149 1049,162 1082,176 1115,194 1148,213 1182,235 1215,260 1248,287 1281,316 1315,348 1348,383 1381,420 1414,459 1448,501 1481,545 1514,591 1547,641 1581,692 1614,746 1647,803 1680,861 1714,923 1747,987 1780,1053 " stroke="pink" fill="none" stroke-width="1" />
    <polyline points="85,801 137,758 189,718 241,680 293,645 345,613 397,582 449,555 501,529 553,506 605,486 658,468 710,453 762,440 814,429 866,421 918,415 970,412 1022,411 1074,413 1126,417 1178,423 1231,432 1283,444 1335,458 1387,474 1439,493 1491,514 1543,538 1595,564 1647,593 1699,624 1751,657 1804,693 1856,732 1908,773 1960,816 2012,862 " stroke="pink" fill="none" stroke-width="1" />
    <polyline points="85,801 133,754 181,709 229,667 277,628 325,591 373,556 421,524 469,494 517,467 565,442 613,420 661,400 710,383 758,368 806,355 854,345 902,337 950,332 998,330 1046,329 1094,332 1142,336 1190,343 1238,353 1287,365 1335,379 1383,396 1431,416 1479,437 1527,462 1575,488 1623,518 1671,549 1719,583 1767,620 1815,659 1864,700 1912,744 1960,790 2008,839 " stroke="pink" fill="none" stroke-width="1" />
    <polyline points="85,801 118,743 152,688 186,635 220,585 254,537 288,491 322,448 356,408 390,370 424,334 458,301 492,270 526,242 560,216 594,193 628,172 662,154 696,138 730,124 764,113 798,105 832,98 866,95 900,93 934,95 968,98 1002,104 1036,113 1070,124 1104,137 1138,153 1172,172 1206,193 1240,216 1274,242 1308,270 1342,300 1376,333 1410,369 1444,407 1478,447 1512,490 1546,536 1580,583 1614,634 1648,686 1682,741 1716,799 1750,859 1784,922 1818,987 1852,1054 " stroke="pink" fill="none" stroke-width="1" />
    <polyline points="85,801 138,757 191,716 244,678 297,641 351,608 404,577 457,548 510,522 564,498 617,476 670,457 723,441 777,427 830,415 883,406 936,400 990,395 1043,394 1096,394 1149,398 1203,403 1256,411 1309,422 1362,435 1416,450 1469,468 1522,488 1575,511 1628,536 1682,564 1735,594 1788,627 1841,662 1895,699 1948,739 2001,781 " stroke="pink" fill="none" stroke-width="1" />
    <polyline points="85,801 119,742 154,685 189,631 223,579 258,530 293,484 328,439 362,397 397,358 432,321 467,287 501,255 536,225 571,198 606,174 640,151 675,132 710,114 745,100 779,87 814,77 849,70 884,65 918,62 953,62 988,65 1023,69 1057,77 1092,86 1127,98 1162,113 1196,130 1231,150 1266,172 1301,196 1335,223 1370,252 1405,284 1440,318 1474,355 1509,394 1544,436 1579,480 1613,526 1648,575 1683,627 1718,680 1752,737 1787,795 1822,857 1857,920 1891,986 1926,1055 " stroke="pink" fill="none" stroke-width="1" />
    <polyline points="85,801 143,761 201,724 259,689 317,657 375,628 433,600 492,576 550,553 608,533 666,516 724,501 782,488 841,478 899,471 957,466 1015,463 1073,463 1131,465 1190,469 1248,477 1306,486 1364,498 1422,513 1480,529 1538,549 1597,571 1655,595 1713,622 1771,651 1829,682 1887,716 1946,753 2004,792 " stroke="pink" fill="none" stroke-width="1" />
    <polyline points="85,801 139,756 193,714 248,675 302,638 356,603 411,571 465,541 520,514 574,489 628,467 683,447 737,429 792,414 846,402 900,392 955,384 1009,379 1064,376 1118,376 1172,378 1227,383 1281,390 1335,400 1390,412 1444,426 1499,443 1553,462 1607,484 1662,508 1716,535 1771,564 1825,596 1879,630 1934,666 1988,705 " stroke="pink" fill="none" stroke-width="1" />
    <polyline points="85,801 144,760 203,722 263,687 322,654 381,623 441,595 500,569 560,546 619,526 678,507 738,491 797,478 857,467 916,459 975,453 1035,449 1094,448 1153,449 1213,453 1272,459 1332,468 1391,479 1450,493 1510,509 1569,527 1629,548 1688,572 1747,598 1807,626 1866,657 1926,690 1985,725 " stroke="pink" fill="none" stroke-width="1" />
    <polyline points="85,801 145,759 206,721 266,684 327,650 388,619 448,590 509,563 569,539 630,518 691,499 751,482 812,468 873,456 933,447 994,440 1054,435 1115,433 1176,434 1236,437 1297,442 1357,450 1418,460 1479,473 1539,488 1600,506 1661,526 1721,548 1782,573 1842,601 1903,631 1964,663 " stroke="pink" fill="none" stroke-width="1" />
    <polyline points="85,801 146,758 208,719 270,682 332,647 394,615 456,585 517,557 579,533 641,510 703,490 765,473 827,457 888,445 950,435 1012,427 1074,422 1136,419 1198,418 1260,420 1321,425 1383,432 1445,441 1507,453 1569,467 1631,484 1692,504 1754,525 1816,549 1878,576 1940,605 2002,636 " stroke="pink" fill="none" stroke-width="1" />
    <polyline points="85,801 151,763 218,728 285,696 351,666 418,639 485,614 551,591 618,571 685,553 751,538 818,525 885,515 951,507 1018,502 1085,499 1151,498 1218,500 1285,505 1351,512 1418,521 1485,533 1552,547 1618,564 1685,583 1752,604 1818,628 1885,655 1952,684 2018,715 " stroke="pink" fill="none" stroke-width="1" />
    <polyline points="85,801 152,762 220,727 288,694 356,663 424,635 492,609 560,586 628,565 696,547 764,531 832,517 900,506 968,497 1036,491 1104,488 1172,486 1240,488 1308,491 1376,497 1444,506 1512,517 1580,531 1648,546 1716,565 1784,586 1852,609 1920,635 1988,663 " stroke="pink" fill="none" stroke-width="1" />
    <polyline points="85,801 154,762 223,725 292,692 362,660 431,631 500,605 569,581 639,559 708,540 777,523 847,509 916,497 985,488 1054,481 1124,476 1193,474 1262,475 1332,478 1401,483 1470,491 1539,501 1609,514 1678,529 1747,547 1817,567 1886,589 1955,614 " stroke="pink" fill="none" stroke-width="1" />
</svg>