<svg width="1000" height="1000" xmlns="http://www.w3.org/2000/svg" version="1.1">
    <circle cx="500" cy="500" r="400" stroke="black" stroke-width="15" fill="white" />
	<circle cx="500" cy="500" r="10" stroke="black" stroke-width="25" fill="black" />
    <line x1="900" y1="500" x2="860" y2="500" stroke="black" stroke-width="6" />
    <line x1="897" y1="541" x2="858" y2="537" stroke="black" stroke-width="6" />
    <line x1="891" y1="583" x2="852" y2="574" stroke="black" stroke-width="6" />
    <line x1="880" y1="623" x2="842" y2="611" stroke="black" stroke-width="6" />
    <line x1="865" y1="662" x2="828" y2="646" stroke="black" stroke-width="6" />
    <line x1="846" y1="700" x2="811" y2="680" stroke="black" stroke-width="6" />
    <line x1="823" y1="735" x2="791" y2="711" stroke="black" stroke-width="6" />
    <line x1="797" y1="767" x2="767" y2="740" stroke="black" stroke-width="6" />
    <line x1="767" y1="797" x2="740" y2="767" stroke="black" stroke-width="6" />
    <line x1="735" y1="823" x2="711" y2="791" stroke="black" stroke-width="6" />
    <line x1="699" y1="846" x2="679" y2="811" stroke="black" stroke-width="6" />
    <line x1="662" y1="865" x2="646" y2="828" stroke="black" stroke-width="6" />
    <line x1="623" y1="880" x2="611" y2="842" stroke="black" stroke-width="6" />
    <line x1="583" y1="891" x2="574" y2="852" stroke="black" stroke-width="6" />
    <line x1="541" y1="897" x2="537" y2="858" stroke="black" stroke-width="6" />
    <line x1="499" y1="900" x2="499" y2="860" stroke="black" stroke-width="6" />
    <line x1="458" y1="897" x2="462" y2="858" stroke="black" stroke-width="6" />
    <line x1="416" y1="891" x2="425" y2="852" stroke="black" stroke-width="6" />
    <line x1="376" y1="880" x2="388" y2="842" stroke="black" stroke-width="6" />
    <line x1="337" y1="865" x2="353" y2="828" stroke="black" stroke-width="6" />
    <line x1="299" y1="846" x2="319" y2="811" stroke="black" stroke-width="6" />
    <line x1="264" y1="823" x2="288" y2="791" stroke="black" stroke-width="6" />
    <line x1="232" y1="797" x2="259" y2="767" stroke="black" stroke-width="6" />
    <line x1="202" y1="767" x2="232" y2="740" stroke="black" stroke-width="6" />
    <line x1="176" y1="735" x2="208" y2="711" stroke="black" stroke-width="6" />
    <line x1="153" y1="699" x2="188" y2="679" stroke="black" stroke-width="6" />
    <line x1="134" y1="662" x2="171" y2="646" stroke="black" stroke-width="6" />
    <line x1="119" y1="623" x2="157" y2="611" stroke="black" stroke-width="6" />
    <line x1="108" y1="583" x2="147" y2="574" stroke="black" stroke-width="6" />
    <line x1="102" y1="541" x2="141" y2="537" stroke="black" stroke-width="6" />
    <line x1="100" y1="499" x2="140" y2="499" stroke="black" stroke-width="6" />
    <line x1="102" y1="458" x2="141" y2="462" stroke="black" stroke-width="6" />
    <line x1="108" y1="416" x2="147" y2="425" stroke="black" stroke-width="6" />
    <line x1="119" y1="376" x2="157" y2="388" stroke="black" stroke-width="6" />
    <line x1="134" y1="337" x2="171" y2="353" stroke="black" stroke-width="6" />
    <line x1="153" y1="299" x2="188" y2="319" stroke="black" stroke-width="6" />
    <line x1="176" y1="264" x2="208" y2="288" stroke="black" stroke-width="6" />
    <line x1="202" y1="232" x2="232" y2="259" stroke="black" stroke-width="6" />
    <line x1="232" y1="202" x2="259" y2="232" stroke="black" stroke-width="6" />
    <line x1="264" y1="176" x2="288" y2="208" stroke="black" stroke-width="6" />
    <line x1="300" y1="153" x2="320" y2="188" stroke="black" stroke-width="6" />
    <line x1="337" y1="134" x2="353" y2="171" stroke="black" stroke-width="6" />
    <line x1="376" y1="119" x2="388" y2="157" stroke="black" stroke-width="6" />
    <line x1="416" y1="108" x2="425" y2="147" stroke="black" stroke-width="6" />
    <line x1="458" y1="102" x2="462" y2="141" stroke="black" stroke-width="6" />
    <line x1="500" y1="100" x2="500" y2="140" stroke="black" stroke-width="6" />
    <line x1="541" y1="102" x2="537" y2="141" stroke="black" stroke-width="6" />
    <line x1="583" y1="108" x2="574" y2="147" stroke="black" stroke-width="6" />
    <line x1="623" y1="119" x2="611" y2="157" stroke="black" stroke-width="6" />
    <line x1="662" y1="134" x2="646" y2="171" stroke="black" stroke-width="6" />
    <line x1="700" y1="153" x2="680" y2="188" stroke="black" stroke-width="6" />
    <line x1="735" y1="176" x2="711" y2="208" stroke="black" stroke-width="6" />
    <line x1="767" y1="202" x2="740" y2="232" stroke="black" stroke-width="6" />
    <line x1="797" y1="232" x2="767" y2="259" stroke="black" stroke-width="6" />
    <line x1="823" y1="264" x2="791" y2="288" stroke="black" stroke-width="6" />
    <line x1="846" y1="300" x2="811" y2="320" stroke="black" stroke-width="6" />
    <line x1="865" y1="337" x2="828" y2="353" stroke="black" stroke-width="6" />
    <line x1="880" y1="376" x2="842" y2="388" stroke="black" stroke-width="6" />
    <line x1="891" y1="416" x2="852" y2="425" stroke="black" stroke-width="6" />
    <line x1="897" y1="458" x2="858" y2="462" stroke="black" stroke-width="6" />
    <line x1="900" y1="500" x2="800" y2="500" stroke="black" stroke-width="17" />
    <line x1="846" y1="700" x2="759" y2="650" stroke="black" stroke-width="17" />
    <line x1="699" y1="846" x2="649" y2="759" stroke="black" stroke-width="17" />
    <line x1="499" y1="900" x2="499" y2="800" stroke="black" stroke-width="17" />
    <line x1="299" y1="846" x2="349" y2="759" stroke="black" stroke-width="17" />
    <line x1="153" y1="699" x2="240" y2="649" stroke="black" stroke-width="17" />
    <line x1="100" y1="499" x2="200" y2="499" stroke="black" stroke-width="17" />
    <line x1="153" y1="299" x2="240" y2="349" stroke="black" stroke-width="17" />
    <line x1="300" y1="153" x2="350" y2="240" stroke="black" stroke-width="17" />
    <line x1="500" y1="100" x2="500" y2="200" stroke="black" stroke-width="17" />
    <line x1="700" y1="153" x2="650" y2="240" stroke="black" stroke-width="17" />
    <line x1="846" y1="300" x2="759" y2="350" stroke="black" stroke-width="17" />
    <line x1="491" y1="600" x2="500" y2="500" stroke="black" stroke-width="20" />
    <line x1="699" y1="506" x2="500" y2="500" stroke="black" stroke-width="15" />
    <line x1="716" y1="625" x2="500" y2="500" stroke="black" stroke-width="2" />
</svg>